999
dxfrw 0.6.3
  0
SECTION
  2
HEADER
  9
$ACADVER
  1
AC1021
  9
$DWGCODEPAGE
  3
ANSI_1252
  9
$INSBASE
 10
0
 20
0
 30
0
  9
$EXTMIN
 10
-0.1703758062297238
 20
-2.024702338587758e-005
 30
0
  9
$EXTMAX
 10
293.5719097963739
 20
156.2953294683087
 30
0
  9
$LIMMIN
 10
0
 20
0
  9
$LIMMAX
 10
420
 20
297
  9
$ORTHOMODE
 70
    0
  9
$REGENMODE
 70
    1
  9
$FILLMODE
 70
    1
  9
$QTEXTMODE
 70
    0
  9
$MIRRTEXT
 70
    0
  9
$LTSCALE
 40
1
  9
$ATTMODE
 70
    0
  9
$TEXTSIZE
 40
2.5
  9
$TRACEWID
 40
15.68
  9
$TEXTSTYLE
  7
STANDARD
  9
$CLAYER
  8
plate
  9
$CELTYPE
  6
BYLAYER
  9
$CECOLOR
 62
  256
  9
$CELTSCALE
 40
1
  9
$DISPSILH
 70
    0
  9
$DIMSCALE
 40
2.5
  9
$DIMASZ
 40
2.5
  9
$DIMEXO
 40
0.625
  9
$DIMDLI
 40
3.75
  9
$DIMRND
 40
0
  9
$DIMDLE
 40
0
  9
$DIMEXE
 40
1.25
  9
$DIMTP
 40
0
  9
$DIMTM
 40
0
  9
$DIMTXT
 40
2.5
  9
$DIMCEN
 40
2.5
  9
$DIMTSZ
 40
0
  9
$DIMTOL
 70
    0
  9
$DIMLIM
 70
    0
  9
$DIMTIH
 70
    0
  9
$DIMTOH
 70
    0
  9
$DIMSE1
 70
    0
  9
$DIMSE2
 70
    0
  9
$DIMTAD
 70
    1
  9
$DIMZIN
 70
    8
  9
$DIMBLK
  1

  9
$DIMASO
 70
    1
  9
$DIMSHO
 70
    1
  9
$DIMPOST
  1

  9
$DIMAPOST
  1

  9
$DIMALT
 70
    0
  9
$DIMALTD
 70
    3
  9
$DIMALTF
 40
0.03937
  9
$DIMLFAC
 40
1
  9
$DIMTOFL
 70
    1
  9
$DIMTVP
 40
0
  9
$DIMTIX
 70
    0
  9
$DIMSOXD
 70
    0
  9
$DIMSAH
 70
    0
  9
$DIMBLK1
  1

  9
$DIMBLK2
  1

  9
$DIMSTYLE
  2
STANDARD
  9
$DIMCLRD
 70
    0
  9
$DIMCLRE
 70
    0
  9
$DIMCLRT
 70
    0
  9
$DIMTFAC
 40
1
  9
$DIMGAP
 40
0.625
  9
$DIMJUST
 70
    0
  9
$DIMSD1
 70
    0
  9
$DIMSD2
 70
    0
  9
$DIMTOLJ
 70
    0
  9
$DIMTZIN
 70
    8
  9
$DIMALTZ
 70
    0
  9
$DIMALTTZ
 70
    0
  9
$DIMUPT
 70
    0
  9
$DIMDEC
 70
    2
  9
$DIMTDEC
 70
    2
  9
$DIMALTU
 70
    2
  9
$DIMALTTD
 70
    3
  9
$DIMTXSTY
  7
STANDARD
  9
$DIMAUNIT
 70
    0
  9
$DIMADEC
 70
    0
  9
$DIMALTRND
 40
0
  9
$DIMAZIN
 70
    0
  9
$DIMDSEP
 70
   44
  9
$DIMATFIT
 70
    3
  9
$DIMFRAC
 70
    0
  9
$DIMLDRBLK
  1
STANDARD
  9
$DIMLUNIT
 70
    2
  9
$DIMLWD
 70
   -2
  9
$DIMLWE
 70
   -2
  9
$DIMTMOVE
 70
    0
  9
$DIMFXL
 40
1
  9
$DIMFXLON
 70
    0
  9
$DIMJOGANG
 40
0.7854
  9
$DIMTFILL
 70
    0
  9
$DIMTFILLCLR
 70
    0
  9
$DIMARCSYM
 70
    0
  9
$DIMLTYPE
  6

  9
$DIMLTEX1
  6

  9
$DIMLTEX2
  6

  9
$LUNITS
 70
    2
  9
$LUPREC
 70
    4
  9
$SKETCHINC
 40
1
  9
$FILLETRAD
 40
0
  9
$AUNITS
 70
    0
  9
$AUPREC
 70
    2
  9
$MENU
  1
.
  9
$ELEVATION
 40
0
  9
$PELEVATION
 40
0
  9
$THICKNESS
 40
0
  9
$LIMCHECK
 70
    0
  9
$CHAMFERA
 40
0
  9
$CHAMFERB
 40
0
  9
$CHAMFERC
 40
0
  9
$CHAMFERD
 40
0
  9
$SKPOLY
 70
    0
  9
$USRTIMER
 70
    1
  9
$ANGBASE
 50
0
  9
$ANGDIR
 70
    0
  9
$PDMODE
 70
   34
  9
$PDSIZE
 40
0
  9
$PLINEWID
 40
0
  9
$SPLFRAME
 70
    0
  9
$SPLINETYPE
 70
    2
  9
$SPLINESEGS
 70
    8
  9
$HANDSEED
  5
20000
  9
$SURFTAB1
 70
    6
  9
$SURFTAB2
 70
    6
  9
$SURFTYPE
 70
    6
  9
$SURFU
 70
    6
  9
$SURFV
 70
    6
  9
$UCSBASE
  2

  9
$UCSNAME
  2

  9
$UCSORG
 10
0
 20
0
 30
0
  9
$UCSXDIR
 10
1
 20
0
 30
0
  9
$UCSYDIR
 10
0
 20
1
 30
0
  9
$UCSORTHOREF
  2

  9
$UCSORTHOVIEW
 70
    0
  9
$UCSORGTOP
 10
0
 20
0
 30
0
  9
$UCSORGBOTTOM
 10
0
 20
0
 30
0
  9
$UCSORGLEFT
 10
0
 20
0
 30
0
  9
$UCSORGRIGHT
 10
0
 20
0
 30
0
  9
$UCSORGFRONT
 10
0
 20
0
 30
0
  9
$UCSORGBACK
 10
0
 20
0
 30
0
  9
$PUCSBASE
  2

  9
$PUCSNAME
  2

  9
$PUCSORG
 10
0
 20
0
 30
0
  9
$PUCSXDIR
 10
1
 20
0
 30
0
  9
$PUCSYDIR
 10
0
 20
1
 30
0
  9
$PUCSORTHOREF
  2

  9
$PUCSORTHOVIEW
 70
    0
  9
$PUCSORGTOP
 10
0
 20
0
 30
0
  9
$PUCSORGBOTTOM
 10
0
 20
0
 30
0
  9
$PUCSORGLEFT
 10
0
 20
0
 30
0
  9
$PUCSORGRIGHT
 10
0
 20
0
 30
0
  9
$PUCSORGFRONT
 10
0
 20
0
 30
0
  9
$PUCSORGBACK
 10
0
 20
0
 30
0
  9
$USERI1
 70
    0
  9
$USERI2
 70
    0
  9
$USERI3
 70
    0
  9
$USERI4
 70
    0
  9
$USERI5
 70
    0
  9
$USERR1
 40
0
  9
$USERR2
 40
0
  9
$USERR3
 40
0
  9
$USERR4
 40
0
  9
$USERR5
 40
0
  9
$WORLDVIEW
 70
    1
  9
$SHADEDGE
 70
    3
  9
$SHADEDIF
 70
   70
  9
$TILEMODE
 70
    1
  9
$MAXACTVP
 70
   64
  9
$PINSBASE
 10
0
 20
0
 30
0
  9
$PLIMCHECK
 70
    0
  9
$PEXTMIN
 10
0
 20
0
 30
0
  9
$PEXTMAX
 10
0
 20
0
 30
0
  9
$SNAPSTYLE
 70
    0
  9
$PLIMMIN
 10
0
 20
0
  9
$PLIMMAX
 10
0.3255
 20
0.46035
  9
$UNITMODE
 70
    0
  9
$VISRETAIN
 70
    1
  9
$PLINEGEN
 70
    0
  9
$PSLTSCALE
 70
    1
  9
$TREEDEPTH
 70
 3020
  9
$CMLSTYLE
  2
Standard
  9
$CMLJUST
 70
    0
  9
$CMLSCALE
 40
20
  9
$PROXYGRAPHICS
 70
    1
  9
$MEASUREMENT
 70
    1
  9
$CELWEIGHT
370
   -1
  9
$ENDCAPS
280
    0
  9
$JOINSTYLE
280
    0
  9
$LWDISPLAY
290
    0
  9
$INSUNITS
 70
    4
  9
$HYPERLINKBASE
  1

  9
$STYLESHEET
  1

  9
$XEDIT
290
    1
  9
$CEPSNTYPE
380
    0
  9
$PSTYLEMODE
290
    1
  9
$EXTNAMES
290
    1
  9
$PSVPSCALE
 40
1
  9
$OLESTARTUP
290
    0
  9
$SORTENTS
280
  127
  9
$INDEXCTL
280
    0
  9
$HIDETEXT
280
    1
  9
$XCLIPFRAME
290
    0
  9
$HALOGAP
280
    0
  9
$OBSCOLOR
 70
  257
  9
$OBSLTYPE
280
    0
  9
$INTERSECTIONDISPLAY
280
    0
  9
$INTERSECTIONCOLOR
 70
  257
  9
$DIMASSOC
280
    1
  9
$PROJECTNAME
  1

  9
$CAMERADISPLAY
290
    0
  9
$LENSLENGTH
 40
50
  9
$CAMERAHEIGHT
 40
0
  9
$STEPSPERSEC
 40
2
  9
$STEPSIZE
 40
50
  9
$3DDWFPREC
 40
2
  9
$PSOLWIDTH
 40
5
  9
$PSOLHEIGHT
 40
80
  9
$LOFTANG1
 40
1.570796326794897
  9
$LOFTANG2
 40
1.570796326794897
  9
$LOFTMAG1
 40
0
  9
$LOFTMAG2
 40
0
  9
$LOFTPARAM
 70
    7
  9
$LOFTNORMALS
280
    1
  9
$LATITUDE
 40
1
  9
$LONGITUDE
 40
1
  9
$NORTHDIRECTION
 40
0
  9
$TIMEZONE
 70
-8000
  9
$LIGHTGLYPHDISPLAY
280
    1
  9
$TILEMODELIGHTSYNCH
280
    1
  9
$SOLIDHIST
280
    1
  9
$SHOWHIST
280
    1
  9
$DWFFRAME
280
    2
  9
$DGNFRAME
280
    0
  9
$REALWORLDSCALE
290
    1
  9
$INTERFERECOLOR
 62
    1
  9
$CSHADOW
280
    0
  9
$SHADOWPLANELOCATION
 40
0
  0
ENDSEC
  0
SECTION
  2
CLASSES
  0
ENDSEC
  0
SECTION
  2
TABLES
  0
TABLE
  2
VPORT
  5
8
330
0
100
AcDbSymbolTable
 70
    1
  0
VPORT
  5
31
330
2
100
AcDbSymbolTableRecord
100
AcDbViewportTableRecord
  2
*ACTIVE
 70
    0
 10
0
 20
0
 11
1
 21
1
 12
95.92583160420941
 22
69.70099873314555
 13
0
 23
0
 14
10
 24
10
 15
10
 25
10
 16
0
 26
0
 36
1
 17
0
 27
0
 37
0
 40
3.400146513976324
 41
1.878537735849057
 42
50
 43
0
 44
0
 50
0
 51
0
 71
    0
 72
  100
 73
    1
 74
    3
 75
    0
 76
    1
 77
    0
 78
    0
281
    0
 65
    1
110
0
120
0
130
0
111
1
121
0
131
0
112
0
122
1
132
0
 79
    0
146
0
348
10020
 60
    7
 61
    5
292
1
282
    1
141
0
142
0
 63
  250
421
3358443
  0
ENDTAB
  0
TABLE
  2
LTYPE
  5
5
330
0
100
AcDbSymbolTable
 70
    4
  0
LTYPE
  5
14
330
5
100
AcDbSymbolTableRecord
100
AcDbLinetypeTableRecord
  2
ByBlock
 70
    0
  3

 72
   65
 73
    0
 40
0
  0
LTYPE
  5
15
330
5
100
AcDbSymbolTableRecord
100
AcDbLinetypeTableRecord
  2
ByLayer
 70
    0
  3

 72
   65
 73
    0
 40
0
  0
LTYPE
  5
16
330
5
100
AcDbSymbolTableRecord
100
AcDbLinetypeTableRecord
  2
Continuous
 70
    0
  3
Solid line
 72
   65
 73
    0
 40
0
  0
LTYPE
  5
32
330
5
100
AcDbSymbolTableRecord
100
AcDbLinetypeTableRecord
  2
DOT
 70
    0
  3
Dot . . . . . . . . . . . . . . . . . . . . . .
 72
   65
 73
    2
 40
6.35
 49
0
 74
    0
 49
-6.35
 74
    0
  0
LTYPE
  5
33
330
5
100
AcDbSymbolTableRecord
100
AcDbLinetypeTableRecord
  2
DOTTINY
 70
    0
  3
Dot (.15x) .....................................
 72
   65
 73
    2
 40
0.9525
 49
0
 74
    0
 49
-0.9525
 74
    0
  0
LTYPE
  5
34
330
5
100
AcDbSymbolTableRecord
100
AcDbLinetypeTableRecord
  2
DOT2
 70
    0
  3
Dot (.5x) .....................................
 72
   65
 73
    2
 40
3.175
 49
0
 74
    0
 49
-3.175
 74
    0
  0
LTYPE
  5
35
330
5
100
AcDbSymbolTableRecord
100
AcDbLinetypeTableRecord
  2
DOTX2
 70
    0
  3
Dot (2x) .  .  .  .  .  .  .  .  .  .  .  .  .
 72
   65
 73
    2
 40
12.7
 49
0
 74
    0
 49
-12.7
 74
    0
  0
LTYPE
  5
36
330
5
100
AcDbSymbolTableRecord
100
AcDbLinetypeTableRecord
  2
DASHED
 70
    0
  3
Dashed _ _ _ _ _ _ _ _ _ _ _ _ _ _ _ _ _
 72
   65
 73
    2
 40
19.05
 49
12.7
 74
    0
 49
-6.35
 74
    0
  0
LTYPE
  5
37
330
5
100
AcDbSymbolTableRecord
100
AcDbLinetypeTableRecord
  2
DASHEDTINY
 70
    0
  3
Dashed (.15x) _ _ _ _ _ _ _ _ _ _ _ _ _ _ _ _ _
 72
   65
 73
    2
 40
2.8575
 49
1.905
 74
    0
 49
-0.9525
 74
    0
  0
LTYPE
  5
38
330
5
100
AcDbSymbolTableRecord
100
AcDbLinetypeTableRecord
  2
DASHED2
 70
    0
  3
Dashed (.5x) _ _ _ _ _ _ _ _ _ _ _ _ _ _ _ _ _
 72
   65
 73
    2
 40
9.524999999999999
 49
6.35
 74
    0
 49
-3.175
 74
    0
  0
LTYPE
  5
39
330
5
100
AcDbSymbolTableRecord
100
AcDbLinetypeTableRecord
  2
DASHEDX2
 70
    0
  3
Dashed (2x) ____  ____  ____  ____  ____  ___
 72
   65
 73
    2
 40
38.09999999999999
 49
25.4
 74
    0
 49
-12.7
 74
    0
  0
LTYPE
  5
3A
330
5
100
AcDbSymbolTableRecord
100
AcDbLinetypeTableRecord
  2
DASHDOT
 70
    0
  3
Dash dot __ . __ . __ . __ . __ . __ . __ . __
 72
   65
 73
    4
 40
25.4
 49
12.7
 74
    0
 49
-6.35
 74
    0
 49
0
 74
    0
 49
-6.35
 74
    0
  0
LTYPE
  5
3B
330
5
100
AcDbSymbolTableRecord
100
AcDbLinetypeTableRecord
  2
DASHDOTTINY
 70
    0
  3
Dash dot (.15x) _._._._._._._._._._._._._._._.
 72
   65
 73
    4
 40
3.81
 49
1.905
 74
    0
 49
-0.9525
 74
    0
 49
0
 74
    0
 49
-0.9525
 74
    0
  0
LTYPE
  5
3C
330
5
100
AcDbSymbolTableRecord
100
AcDbLinetypeTableRecord
  2
DASHDOT2
 70
    0
  3
Dash dot (.5x) _._._._._._._._._._._._._._._.
 72
   65
 73
    4
 40
12.7
 49
6.35
 74
    0
 49
-3.175
 74
    0
 49
0
 74
    0
 49
-3.175
 74
    0
  0
LTYPE
  5
3D
330
5
100
AcDbSymbolTableRecord
100
AcDbLinetypeTableRecord
  2
DASHDOTX2
 70
    0
  3
Dash dot (2x) ____  .  ____  .  ____  .  ___
 72
   65
 73
    4
 40
50.8
 49
25.4
 74
    0
 49
-12.7
 74
    0
 49
0
 74
    0
 49
-12.7
 74
    0
  0
LTYPE
  5
3E
330
5
100
AcDbSymbolTableRecord
100
AcDbLinetypeTableRecord
  2
DIVIDE
 70
    0
  3
Divide ____ . . ____ . . ____ . . ____ . . ____
 72
   65
 73
    6
 40
31.75
 49
12.7
 74
    0
 49
-6.35
 74
    0
 49
0
 74
    0
 49
-6.35
 74
    0
 49
0
 74
    0
 49
-6.35
 74
    0
  0
LTYPE
  5
3F
330
5
100
AcDbSymbolTableRecord
100
AcDbLinetypeTableRecord
  2
DIVIDETINY
 70
    0
  3
Divide (.15x) __..__..__..__..__..__..__..__.._
 72
   65
 73
    6
 40
4.7625
 49
1.905
 74
    0
 49
-0.9525
 74
    0
 49
0
 74
    0
 49
-0.9525
 74
    0
 49
0
 74
    0
 49
-0.9525
 74
    0
  0
LTYPE
  5
40
330
5
100
AcDbSymbolTableRecord
100
AcDbLinetypeTableRecord
  2
DIVIDE2
 70
    0
  3
Divide (.5x) __..__..__..__..__..__..__..__.._
 72
   65
 73
    6
 40
15.875
 49
6.35
 74
    0
 49
-3.175
 74
    0
 49
0
 74
    0
 49
-3.175
 74
    0
 49
0
 74
    0
 49
-3.175
 74
    0
  0
LTYPE
  5
41
330
5
100
AcDbSymbolTableRecord
100
AcDbLinetypeTableRecord
  2
DIVIDEX2
 70
    0
  3
Divide (2x) ________  .  .  ________  .  .  _
 72
   65
 73
    6
 40
63.5
 49
25.4
 74
    0
 49
-12.7
 74
    0
 49
0
 74
    0
 49
-12.7
 74
    0
 49
0
 74
    0
 49
-12.7
 74
    0
  0
LTYPE
  5
42
330
5
100
AcDbSymbolTableRecord
100
AcDbLinetypeTableRecord
  2
BORDER
 70
    0
  3
Border __ __ . __ __ . __ __ . __ __ . __ __ .
 72
   65
 73
    6
 40
44.45
 49
12.7
 74
    0
 49
-6.35
 74
    0
 49
12.7
 74
    0
 49
-6.35
 74
    0
 49
0
 74
    0
 49
-6.35
 74
    0
  0
LTYPE
  5
43
330
5
100
AcDbSymbolTableRecord
100
AcDbLinetypeTableRecord
  2
BORDERTINY
 70
    0
  3
Border (.15x) __.__.__.__.__.__.__.__.__.__.__.
 72
   65
 73
    6
 40
6.6675
 49
1.905
 74
    0
 49
-0.9525
 74
    0
 49
1.905
 74
    0
 49
-0.9525
 74
    0
 49
0
 74
    0
 49
-0.9525
 74
    0
  0
LTYPE
  5
44
330
5
100
AcDbSymbolTableRecord
100
AcDbLinetypeTableRecord
  2
BORDER2
 70
    0
  3
Border (.5x) __.__.__.__.__.__.__.__.__.__.__.
 72
   65
 73
    6
 40
22.225
 49
6.35
 74
    0
 49
-3.175
 74
    0
 49
6.35
 74
    0
 49
-3.175
 74
    0
 49
0
 74
    0
 49
-3.175
 74
    0
  0
LTYPE
  5
45
330
5
100
AcDbSymbolTableRecord
100
AcDbLinetypeTableRecord
  2
BORDERX2
 70
    0
  3
Border (2x) ____  ____  .  ____  ____  .  ___
 72
   65
 73
    6
 40
88.89999999999999
 49
25.4
 74
    0
 49
-12.7
 74
    0
 49
25.4
 74
    0
 49
-12.7
 74
    0
 49
0
 74
    0
 49
-12.7
 74
    0
  0
LTYPE
  5
46
330
5
100
AcDbSymbolTableRecord
100
AcDbLinetypeTableRecord
  2
CENTER
 70
    0
  3
Center ____ _ ____ _ ____ _ ____ _ ____ _ ____
 72
   65
 73
    4
 40
50.8
 49
31.75
 74
    0
 49
-6.35
 74
    0
 49
6.35
 74
    0
 49
-6.35
 74
    0
  0
LTYPE
  5
47
330
5
100
AcDbSymbolTableRecord
100
AcDbLinetypeTableRecord
  2
CENTERTINY
 70
    0
  3
Center (.15x) ___ _ ___ _ ___ _ ___ _ ___ _ ___
 72
   65
 73
    4
 40
7.62
 49
4.7625
 74
    0
 49
-0.9525
 74
    0
 49
0.9525
 74
    0
 49
-0.9525
 74
    0
  0
LTYPE
  5
48
330
5
100
AcDbSymbolTableRecord
100
AcDbLinetypeTableRecord
  2
CENTER2
 70
    0
  3
Center (.5x) ___ _ ___ _ ___ _ ___ _ ___ _ ___
 72
   65
 73
    4
 40
28.575
 49
19.05
 74
    0
 49
-3.175
 74
    0
 49
3.175
 74
    0
 49
-3.175
 74
    0
  0
LTYPE
  5
49
330
5
100
AcDbSymbolTableRecord
100
AcDbLinetypeTableRecord
  2
CENTERX2
 70
    0
  3
Center (2x) ________  __  ________  __  _____
 72
   65
 73
    4
 40
101.6
 49
63.5
 74
    0
 49
-12.7
 74
    0
 49
12.7
 74
    0
 49
-12.7
 74
    0
  0
ENDTAB
  0
TABLE
  2
LAYER
  5
2
330
0
100
AcDbSymbolTable
 70
    1
  0
LAYER
  5
10
330
2
100
AcDbSymbolTableRecord
100
AcDbLayerTableRecord
  2
0
 70
    0
 62
    7
  6
CONTINUOUS
370
    0
390
F
  0
LAYER
  5
4A
330
2
100
AcDbSymbolTableRecord
100
AcDbLayerTableRecord
  2
plate
 70
    0
 62
    4
  6
CONTINUOUS
370
    0
390
F
  0
ENDTAB
  0
TABLE
  2
STYLE
  5
3
330
0
100
AcDbSymbolTable
 70
    3
  0
STYLE
  5
4B
330
2
100
AcDbSymbolTableRecord
100
AcDbTextStyleTableRecord
  2
Standard
 70
    0
 40
0
 41
1
 50
0
 71
    0
 42
1
  3
txt
  4

  0
ENDTAB
  0
TABLE
  2
VIEW
  5
6
330
0
100
AcDbSymbolTable
 70
    0
  0
ENDTAB
  0
TABLE
  2
UCS
  5
7
330
0
100
AcDbSymbolTable
 70
    0
  0
ENDTAB
  0
TABLE
  2
APPID
  5
9
330
0
100
AcDbSymbolTable
 70
    1
  0
APPID
  5
12
330
9
100
AcDbSymbolTableRecord
100
AcDbRegAppTableRecord
  2
ACAD
 70
    0
  0
APPID
  5
4C
330
9
100
AcDbSymbolTableRecord
100
AcDbRegAppTableRecord
  2
LibreCad
 70
    0
  0
ENDTAB
  0
TABLE
  2
DIMSTYLE
  5
A
330
0
100
AcDbSymbolTable
 70
    1
100
AcDbDimStyleTable
 71
    1
  0
DIMSTYLE
105
4D
330
A
100
AcDbSymbolTableRecord
100
AcDbDimStyleTableRecord
  2
Standard
 70
    0
 40
1
 41
2.5
 42
0.625
 43
0.38
 44
1.25
 45
0
 46
0
 47
0
 48
0
 49
1
140
2.5
141
0.09
142
2.5
143
25.4
144
1
145
0
146
1
147
0.625
148
0
 71
    0
 72
    0
 73
    0
 74
    1
 75
    0
 76
    0
 77
    0
 78
    1
 79
    0
170
    0
171
    2
172
    0
173
    0
174
    0
175
    0
176
    0
177
    0
178
    0
179
    0
271
    2
272
    4
273
    2
274
    2
275
    0
276
    0
277
    2
278
    0
279
    0
280
    0
281
    0
282
    0
283
    1
284
    0
285
    0
286
    0
288
    0
289
    3
340
standard
341

371
   -2
372
   -2
  0
ENDTAB
  0
TABLE
  2
BLOCK_RECORD
  5
1
330
0
100
AcDbSymbolTable
 70
    2
  0
BLOCK_RECORD
  5
1F
330
1
100
AcDbSymbolTableRecord
100
AcDbBlockTableRecord
  2
*Model_Space
 70
    0
280
    1
281
    0
  0
BLOCK_RECORD
  5
1E
330
1
100
AcDbSymbolTableRecord
100
AcDbBlockTableRecord
  2
*Paper_Space
 70
    0
280
    1
281
    0
  0
ENDTAB
  0
ENDSEC
  0
SECTION
  2
BLOCKS
  0
BLOCK
  5
20
330
1F
100
AcDbEntity
  8
0
100
AcDbBlockBegin
  2
*Model_Space
 70
    0
 10
0
 20
0
 30
0
  3
*Model_Space
  1

  0
ENDBLK
  5
21
330
1F
100
AcDbEntity
  8
0
100
AcDbBlockEnd
  0
BLOCK
  5
1C
330
1B
100
AcDbEntity
  8
0
100
AcDbBlockBegin
  2
*Paper_Space
 70
    0
 10
0
 20
0
 30
0
  3
*Paper_Space
  1

  0
ENDBLK
  5
1D
330
1F
100
AcDbEntity
  8
0
100
AcDbBlockEnd
  0
ENDSEC
  0
SECTION
  2
ENTITIES
  0
ARC
  5
4E
100
AcDbEntity
  8
plate
  6
ByLayer
 62
    4
370
   -1
100
AcDbCircle
 10
80.82046913236238
 20
152.2160036083505
 40
1.000000000008245
100
AcDbArc
 50
254.9349276791966
 51
344.9351615658097
  0
ARC
  5
4F
100
AcDbEntity
  8
plate
  6
ByLayer
 62
    4
370
   -1
100
AcDbCircle
 10
84.5195427639056
 20
151.2173928725877
 40
2.831500000008929
100
AcDbArc
 50
74.93516156580655
 51
164.8773435819725
  0
ARC
  5
50
100
AcDbEntity
  8
plate
  6
ByLayer
 62
    4
370
   -1
100
AcDbCircle
 10
56.83022753188002
 20
148.787797855502
 40
0.9999999999999248
100
AcDbArc
 50
255.0000199644594
 51
344.9351615658128
  0
ARC
  5
51
100
AcDbEntity
  8
plate
  6
ByLayer
 62
    4
370
   -1
100
AcDbCircle
 10
4.829624193770234
 20
78.7058863469736
 40
4.999999999999958
100
AcDbArc
 50
165.0000199644476
 51
255.0000199644486
  0
ARC
  5
52
100
AcDbEntity
  8
plate
  6
ByLayer
 62
    4
370
   -1
100
AcDbCircle
 10
63.54756637204881
 20
150.6473855580396
 40
5.002247394237348
100
AcDbArc
 50
74.94630903463418
 51
164.9205615779951
  0
ARC
  5
53
100
AcDbEntity
  8
plate
  6
ByLayer
 62
    4
370
   -1
100
AcDbCircle
 10
146.5893086860432
 20
141.8799792396979
 40
9.999999999999824
100
AcDbArc
 50
254.9205557928278
 51
284.9999800355427
  0
ARC
  5
54
100
AcDbEntity
  8
plate
  6
ByLayer
 62
    4
370
   -1
100
AcDbCircle
 10
24.28004151530971
 20
151.2953294683086
 40
5.000000000000036
100
AcDbArc
 50
75.00449670517722
 51
165.0044967051765
  0
ARC
  5
55
100
AcDbEntity
  8
plate
  6
ByLayer
 62
    4
370
   -1
100
AcDbCircle
 10
66.24350507338269
 20
54.97384099039203
 40
2.028336325767703
100
AcDbArc
 50
345.4087023547804
 51
75.00001996445867
  0
ARC
  5
56
100
AcDbEntity
  8
plate
  6
ByLayer
 62
    4
370
   -1
100
AcDbCircle
 10
130.1642569354963
 20
5.124151274937319
 40
2.804699999999767
100
AcDbArc
 50
210.5366928563004
 51
270
  0
ARC
  5
57
100
AcDbEntity
  8
plate
  6
ByLayer
 62
    4
370
   -1
100
AcDbCircle
 10
57.22645341584943
 20
-37.90243955236723
 40
81.87830124872117
100
AcDbArc
 50
30.53669285629998
 51
80.83800492591675
  0
ARC
  5
58
100
AcDbEntity
  8
plate
  6
ByLayer
 62
    4
370
   -1
100
AcDbCircle
 10
71.55768070326027
 20
47.76090974768555
 40
5.000000000000023
100
AcDbArc
 50
164.7110069447887
 51
255.0006283598694
  0
CIRCLE
  5
59
100
AcDbEntity
  8
plate
  6
ByLayer
 62
    4
370
   -1
100
AcDbCircle
 10
129.7263129269245
 20
5.533270993441064
 40
1
  0
CIRCLE
  5
5A
100
AcDbEntity
  8
plate
  6
ByLayer
 62
    4
370
   -1
100
AcDbCircle
 10
69.81344792641963
 20
46.78199502937836
 40
1
  0
CIRCLE
  5
5B
100
AcDbEntity
  8
plate
  6
ByLayer
 62
    4
370
   -1
100
AcDbCircle
 10
3.091588943582456
 20
77.71620426744265
 40
1
  0
CIRCLE
  5
5C
100
AcDbEntity
  8
plate
  6
ByLayer
 62
    4
370
   -1
100
AcDbCircle
 10
23.28115862500833
 20
153.028025766537
 40
1
  0
CIRCLE
  5
5D
100
AcDbEntity
  8
plate
  6
ByLayer
 62
    4
370
   -1
100
AcDbCircle
 10
92.14327096393967
 20
148.9901280187362
 40
1
  0
ARC
  5
5E
100
AcDbEntity
  8
plate
  6
ByLayer
 62
    4
370
   -1
100
AcDbCircle
 10
212.5810648577819
 20
152.2160036083499
 40
1.000000000008245
100
AcDbArc
 50
195.0648384341903
 51
285.0650723208034
  0
ARC
  5
5F
100
AcDbEntity
  8
plate
  6
ByLayer
 62
    4
370
   -1
100
AcDbCircle
 10
208.8819912262388
 20
151.2173928725871
 40
2.831500000008929
100
AcDbArc
 50
15.12265641802747
 51
105.0648384341935
  0
ARC
  5
60
100
AcDbEntity
  8
plate
  6
ByLayer
 62
    4
370
   -1
100
AcDbCircle
 10
236.5713064582644
 20
148.7877978555014
 40
0.9999999999999248
100
AcDbArc
 50
195.0648384341872
 51
284.9999800355406
  0
ARC
  5
61
100
AcDbEntity
  8
plate
  6
ByLayer
 62
    4
370
   -1
100
AcDbCircle
 10
288.571909796374
 20
78.70588634697303
 40
4.999999999999958
100
AcDbArc
 50
284.9999800355514
 51
14.9999800355524
  0
ARC
  5
62
100
AcDbEntity
  8
plate
  6
ByLayer
 62
    4
370
   -1
100
AcDbCircle
 10
229.8539676180955
 20
150.647385558039
 40
5.002247394237348
100
AcDbArc
 50
15.0794384220049
 51
105.0536909653658
  0
ARC
  5
63
100
AcDbEntity
  8
plate
  6
ByLayer
 62
    4
370
   -1
100
AcDbCircle
 10
269.1214924748346
 20
151.295329468308
 40
5.000000000000036
100
AcDbArc
 50
14.99550329482346
 51
104.9955032948228
  0
ARC
  5
64
100
AcDbEntity
  8
plate
  6
ByLayer
 62
    4
370
   -1
100
AcDbCircle
 10
227.1580289167616
 20
54.97384099039145
 40
2.028336325767703
100
AcDbArc
 50
104.9999800355413
 51
194.5912976452196
  0
ARC
  5
65
100
AcDbEntity
  8
plate
  6
ByLayer
 62
    4
370
   -1
100
AcDbCircle
 10
163.237277054648
 20
5.124151274936722
 40
2.804699999999767
100
AcDbArc
 50
270
 51
329.4633071436996
  0
ARC
  5
66
100
AcDbEntity
  8
plate
  6
ByLayer
 62
    4
370
   -1
100
AcDbCircle
 10
236.1750805742949
 20
-37.90243955236782
 40
81.87830124872117
100
AcDbArc
 50
99.16199507408322
 51
149.4633071437
  0
ARC
  5
67
100
AcDbEntity
  8
plate
  6
ByLayer
 62
    4
370
   -1
100
AcDbCircle
 10
221.843853286884
 20
47.76090974768493
 40
5.000000000000023
100
AcDbArc
 50
284.9993716401306
 51
15.2889930552113
  0
CIRCLE
  5
68
100
AcDbEntity
  8
plate
  6
ByLayer
 62
    4
370
   -1
100
AcDbCircle
 10
163.6752210632198
 20
5.533270993440468
 40
1
  0
CIRCLE
  5
69
100
AcDbEntity
  8
plate
  6
ByLayer
 62
    4
370
   -1
100
AcDbCircle
 10
223.5880860637247
 20
46.7819950293778
 40
1
  0
CIRCLE
  5
6A
100
AcDbEntity
  8
plate
  6
ByLayer
 62
    4
370
   -1
100
AcDbCircle
 10
290.3099450465618
 20
77.71620426744202
 40
1
  0
CIRCLE
  5
6B
100
AcDbEntity
  8
plate
  6
ByLayer
 62
    4
370
   -1
100
AcDbCircle
 10
270.120375365136
 20
153.0280257665363
 40
1
  0
CIRCLE
  5
6C
100
AcDbEntity
  8
plate
  6
ByLayer
 62
    4
370
   -1
100
AcDbCircle
 10
201.2582630262047
 20
148.9901280187355
 40
1
  0
ARC
  5
6D
100
AcDbEntity
  8
plate
  6
ByLayer
 62
  256
370
   -1
100
AcDbCircle
 10
-5.425211122522681e-006
 20
-2.024702338587758e-005
 40
0
100
AcDbArc
 50
0
 51
0
  0
ARC
  5
6E
100
AcDbEntity
  8
plate
  6
ByLayer
 62
  256
370
   -1
100
AcDbCircle
 10
106.2135685234878
 20
145.2154386191407
 40
3.000000000000964
100
AcDbArc
 50
180.0000000000174
 51
255.3281948451157
  0
ARC
  5
6F
100
AcDbEntity
  8
plate
  6
ByLayer
 62
  256
370
   -1
100
AcDbCircle
 10
98.21386514441002
 20
145.2843287256705
 40
5.00000000000001
100
AcDbArc
 50
359.2105806507352
 51
74.9299610159029
  0
ARC
  5
70
100
AcDbEntity
  8
plate
  6
ByLayer
 62
  256
370
   -1
100
AcDbCircle
 10
187.187963011442
 20
145.2154379580495
 40
3.000000000000964
100
AcDbArc
 50
284.6718051548842
 51
359.9999999999827
  0
ARC
  5
71
100
AcDbEntity
  8
plate
  6
ByLayer
 62
  256
370
   -1
100
AcDbCircle
 10
195.1876663905198
 20
145.2843280645793
 40
5.00000000000001
100
AcDbArc
 50
105.0700389840971
 51
180.7894193492649
  0
LINE
  5
72
100
AcDbEntity
  8
plate
  6
ByLayer
 62
    4
370
   -1
100
AcDbLine
 10
25.57375769638254
 20
156.1250601484636
 11
56.57140882335009
 21
147.8218719390287
  0
LINE
  5
73
100
AcDbEntity
  8
plate
  6
ByLayer
 62
    4
370
   -1
100
AcDbLine
 10
57.79585984867988
 20
148.5278858920383
 11
58.71756608825789
 21
151.9487603125719
  0
LINE
  5
74
100
AcDbEntity
  8
plate
  6
ByLayer
 62
    4
370
   -1
100
AcDbLine
 10
64.84677049990634
 20
155.4779701631689
 11
80.56055322709912
 21
151.250372352535
  0
LINE
  5
75
100
AcDbEntity
  8
plate
  6
ByLayer
 62
    4
370
   -1
100
AcDbLine
 10
105.4537227385695
 20
142.313261094738
 11
143.9877275572937
 21
132.224318949975
  0
LINE
  5
76
100
AcDbEntity
  8
plate
  6
ByLayer
 62
    4
370
   -1
100
AcDbLine
 10
149.177495771343
 20
132.2207200749646
 11
187.9478087963603
 21
142.3132604336469
  0
LINE
  5
77
100
AcDbEntity
  8
plate
  6
ByLayer
 62
    4
370
   -1
100
AcDbLine
 10
193.8876683421698
 20
150.11237167191
 11
208.1460505016884
 21
153.9515807776147
  0
LINE
  5
78
100
AcDbEntity
  8
plate
  6
ByLayer
 62
    4
370
   -1
100
AcDbLine
 10
212.8409807630451
 20
151.2503723525345
 11
228.554763490238
 21
155.4779701631683
  0
LINE
  5
79
100
AcDbEntity
  8
plate
  6
ByLayer
 62
    4
370
   -1
100
AcDbLine
 10
234.6839679018864
 20
151.9487603125713
 11
235.6056741414645
 21
148.5278858920376
  0
LINE
  5
7A
100
AcDbEntity
  8
plate
  6
ByLayer
 62
    4
370
   -1
100
AcDbLine
 10
236.8301251667943
 20
147.8218719390281
 11
267.8277762937618
 21
156.125060148463
  0
LINE
  5
7B
100
AcDbEntity
  8
plate
  6
ByLayer
 62
    4
370
   -1
100
AcDbLine
 10
273.9512231549897
 20
152.5890456493806
 11
293.4015393787405
 21
79.99997988962376
  0
LINE
  5
7C
100
AcDbEntity
  8
plate
  6
ByLayer
 62
    4
370
   -1
100
AcDbLine
 10
289.8660033390247
 20
73.87625676460654
 11
226.633057528462
 21
56.93306361477482
  0
LINE
  5
7D
100
AcDbEntity
  8
plate
  6
ByLayer
 62
    4
370
   -1
100
AcDbLine
 10
225.1951116202853
 20
54.46285768574919
 11
226.6668937500419
 21
49.07934847995175
  0
LINE
  5
7E
100
AcDbEntity
  8
plate
  6
ByLayer
 62
    4
370
   -1
100
AcDbLine
 10
163.237277054648
 20
2.319451274936952
 11
130.1642569354963
 21
2.319451274937549
  0
LINE
  5
7F
100
AcDbEntity
  8
plate
  6
ByLayer
 62
    4
370
   -1
100
AcDbLine
 10
66.7684764616823
 20
56.93306361477537
 11
3.535530651119585
 21
73.87625676460712
  0
LINE
  5
80
100
AcDbEntity
  8
plate
  6
ByLayer
 62
    4
370
   -1
100
AcDbLine
 10
-5.388596229183177e-006
 20
79.99997988962433
 11
19.4503108351547
 21
152.5890456493814
  0
LINE
  5
81
100
AcDbEntity
  8
plate
  6
ByLayer
 62
    4
370
   -1
100
AcDbLine
 10
85.25548348845591
 20
153.9515807776152
 11
99.51386319276006
 21
150.1123723330011
  0
LINE
  5
82
100
AcDbEntity
  8
plate
  6
ByLayer
 62
    4
370
   -1
100
AcDbLine
 10
68.20642236985896
 20
54.46285768574976
 11
66.73464024010232
 21
49.07934847995237
  0
ARC
  5
83
100
AcDbEntity
  8
plate
  6
ByLayer
 62
    4
370
   -1
100
AcDbCircle
 10
56.83022753188002
 20
148.787797855502
 40
5.999999999999925
100
AcDbArc
 50
255.0000199644594
 51
344.9351615658128
  0
ARC
  5
84
100
AcDbEntity
  8
plate
  6
ByLayer
 62
    4
370
   -1
100
AcDbCircle
 10
236.5713064582644
 20
148.7877978555014
 40
5.999999999999925
100
AcDbArc
 50
195.0648384341872
 51
284.9999800355406
  0
ARC
  5
85
100
AcDbEntity
  8
plate
  6
ByLayer
 62
    4
370
   -1
100
AcDbCircle
 10
227.1580289167616
 20
54.97384099039145
 40
7.028336325767703
100
AcDbArc
 50
104.9999800355413
 51
194.5912976452196
  0
ARC
  5
86
100
AcDbEntity
  8
plate
  6
ByLayer
 62
    4
370
   -1
100
AcDbCircle
 10
66.24350507338269
 20
54.97384099039203
 40
7.028336325767703
100
AcDbArc
 50
345.4087023547804
 51
75.00001996445867
  0
ARC
  5
87
100
AcDbEntity
  8
plate
  6
ByLayer
 62
    4
370
   -1
100
AcDbCircle
 10
25.69429237319545
 20
148.8459922273005
 40
1.9994385131694
100
AcDbArc
 50
74.99990082028764
 51
165.0044967051768
  0
ARC
  5
88
100
AcDbEntity
  8
plate
  6
ByLayer
 62
    4
370
   -1
100
AcDbCircle
 10
64.96183249003522
 20
148.198105330257
 40
1.999780559634196
100
AcDbArc
 50
74.99990082028884
 51
164.9418340693032
  0
ARC
  5
89
100
AcDbEntity
  8
plate
  6
ByLayer
 62
    4
370
   -1
100
AcDbCircle
 10
-5.425211122522681e-006
 20
-2.024702338587758e-005
 40
0
100
AcDbArc
 50
0
 51
0
  0
ARC
  5
8A
100
AcDbEntity
  8
plate
  6
ByLayer
 62
    4
370
   -1
100
AcDbCircle
 10
228.4445451830372
 20
148.1994084629074
 40
1.999999057335783
100
AcDbArc
 50
15.05816716223178
 51
105.0794433542715
  0
ARC
  5
8B
100
AcDbEntity
  8
plate
  6
ByLayer
 62
    4
370
   -1
100
AcDbCircle
 10
267.7072416169488
 20
148.8459922272999
 40
2.000000006433199
100
AcDbArc
 50
14.99550366343769
 51
105.0000991797112
  0
ARC
  5
8C
100
AcDbEntity
  8
plate
  6
ByLayer
 62
    4
370
   -1
100
AcDbCircle
 10
286.1224165291478
 20
80.12009968645054
 40
2.000000000004309
100
AcDbArc
 50
285.0000991797127
 51
14.99998003554276
  0
LINE
  5
8D
100
AcDbEntity
  8
plate
  6
ByLayer
 62
    4
370
   -1
100
AcDbLine
 10
225.3389639858122
 20
61.76269319714157
 11
286.6400579634126
 21
78.18824892990916
  0
ARC
  5
8E
100
AcDbEntity
  8
plate
  6
ByLayer
 62
    4
370
   -1
100
AcDbCircle
 10
219.3318408141111
 20
49.36529622231236
 40
1.999999999999989
100
AcDbArc
 50
280.924132555654
 51
15.29030241853074
  0
ARC
  5
8F
100
AcDbEntity
  8
plate
  6
ByLayer
 62
    4
370
   -1
100
AcDbCircle
 10
132.5221734771686
 20
9.319451274937506
 40
2.000000000000002
100
AcDbArc
 50
212.0939790606438
 51
269.9999999999992
  0
ARC
  5
90
100
AcDbEntity
  8
plate
  6
ByLayer
 62
    4
370
   -1
100
AcDbCircle
 10
160.8793605129757
 20
9.319451274936995
 40
2.000000000000003
100
AcDbArc
 50
269.9999999999992
 51
327.906020939356
  0
ARC
  5
91
100
AcDbEntity
  8
plate
  6
ByLayer
 62
    4
370
   -1
100
AcDbCircle
 10
74.06969317603313
 20
49.36529622231297
 40
2.005955750281705
100
AcDbArc
 50
164.7096975814684
 51
254.709697581469
  0
ARC
  5
92
100
AcDbEntity
  8
plate
  6
ByLayer
 62
    4
370
   -1
100
AcDbCircle
 10
7.278714738530837
 20
80.12020759546017
 40
1.999587229995059
100
AcDbArc
 50
165.0000199644574
 51
255.0118448674129
  0
LINE
  5
93
100
AcDbEntity
  8
plate
  6
ByLayer
 62
    4
370
   -1
100
AcDbLine
 10
79.26097370079356
 20
146.4222160734978
 11
65.47941712858602
 21
150.1297441237759
  0
LINE
  5
94
100
AcDbEntity
  8
plate
  6
ByLayer
 62
    4
370
   -1
100
AcDbLine
 10
63.03071923766545
 20
148.717647333576
 11
62.62402143267953
 21
147.2283260747193
  0
LINE
  5
95
100
AcDbEntity
  8
plate
  6
ByLayer
 62
    4
370
   -1
100
AcDbLine
 10
55.27731528070034
 20
142.992242356662
 11
26.21178848303498
 21
150.7773006294585
  0
LINE
  5
96
100
AcDbEntity
  8
plate
  6
ByLayer
 62
    4
370
   -1
100
AcDbLine
 10
23.76294246716791
 20
149.36333341881
 11
5.347261610829533
 21
80.63773817992052
  0
LINE
  5
97
100
AcDbEntity
  8
plate
  6
ByLayer
 62
    4
370
   -1
100
AcDbLine
 10
230.3758694192925
 20
148.7190072733341
 11
230.7775125574648
 21
147.2283260747188
  0
LINE
  5
98
100
AcDbEntity
  8
plate
  6
ByLayer
 62
    4
370
   -1
100
AcDbLine
 10
238.124218709444
 20
142.9922423566613
 11
267.1896001810201
 21
150.7778429900512
  0
LINE
  5
99
100
AcDbEntity
  8
plate
  6
ByLayer
 62
    4
370
   -1
100
AcDbLine
 10
269.6391338918957
 20
149.3634787138225
 11
288.0542683620986
 21
80.63773710351163
  0
LINE
  5
9A
100
AcDbEntity
  8
plate
  6
ByLayer
 62
    4
370
   -1
100
AcDbLine
 10
220.3563743962371
 20
53.20324581036441
 11
221.261044946916
 21
49.89271580288207
  0
LINE
  5
9B
100
AcDbEntity
  8
plate
  6
ByLayer
 62
    4
370
   -1
100
AcDbLine
 10
160.8793605129756
 20
7.319451274936995
 11
132.5221734771686
 21
7.319451274937506
  0
ARC
  5
9C
100
AcDbEntity
  8
plate
  6
ByLayer
 62
    4
370
   -1
100
AcDbCircle
 10
57.22645341584943
 20
-37.90243955236723
 40
86.87830124872116
100
AcDbArc
 50
32.0939790606436
 51
79.17658158914539
  0
ARC
  5
9D
100
AcDbEntity
  8
plate
  6
ByLayer
 62
    4
370
   -1
100
AcDbCircle
 10
236.1750805742949
 20
-37.90243955236782
 40
86.87830124872119
100
AcDbArc
 50
100.9241325556539
 51
147.9060209393564
  0
LINE
  5
9E
100
AcDbEntity
  8
plate
  6
ByLayer
 62
    4
370
   -1
100
AcDbLine
 10
72.13474411419948
 20
49.89428639254049
 11
73.04515959390716
 21
53.20324581036499
  0
LINE
  5
9F
100
AcDbEntity
  8
plate
  6
ByLayer
 62
    4
370
   -1
100
AcDbLine
 10
68.0625700043321
 20
61.76269319714214
 11
6.761582785127377
 21
78.1886476991255
  0
ARC
  5
A0
100
AcDbEntity
  8
0
  6
ByLayer
 62
    4
370
   -1
100
AcDbCircle
 10
0
 20
0
 40
0
100
AcDbArc
 50
0
 51
0
  0
LINE
  5
A1
100
AcDbEntity
  8
plate
  6
ByLayer
 62
    4
370
   -1
100
AcDbLine
 10
214.1335760438833
 20
146.4481637188127
 11
227.9242292312757
 21
150.1305396183928
  0
ARC
  5
A2
100
AcDbEntity
  8
plate
  6
ByLayer
 62
    4
370
   -1
100
AcDbCircle
 10
146.5893086860432
 20
141.8799792396979
 40
14.99999999999982
100
AcDbArc
 50
254.9205557928278
 51
284.9999800355427
  0
ARC
  5
A3
100
AcDbEntity
  8
plate
  6
ByLayer
 62
    4
370
   -1
100
AcDbCircle
 10
96.55517801469156
 20
142.6240118346032
 40
1.999999999999994
100
AcDbArc
 50
15.41750050664145
 51
74.92055579282564
  0
ARC
  5
A4
100
AcDbEntity
  8
plate
  6
ByLayer
 62
    4
370
   -1
100
AcDbCircle
 10
80.82046913236238
 20
152.2160036083505
 40
6.00000000000824
100
AcDbArc
 50
254.9349276791965
 51
299.3649101511753
  0
ARC
  5
A5
100
AcDbEntity
  8
plate
  6
ByLayer
 62
    4
370
   -1
100
AcDbCircle
 10
106.2135685234878
 20
145.2154386191407
 40
8.000000000001062
100
AcDbArc
 50
194.9196236362665
 51
255.3281894813797
  0
ARC
  5
A6
100
AcDbEntity
  8
plate
  6
ByLayer
 62
    4
370
   -1
100
AcDbCircle
 10
85.33793044852567
 20
145.6445752208665
 40
1.999999999999475
100
AcDbArc
 50
74.92055579282554
 51
124.6621377107035
  0
LINE
  5
A7
100
AcDbEntity
  8
plate
  6
ByLayer
 62
    4
370
   -1
100
AcDbLine
 10
85.85824667427552
 20
147.5757072788106
 11
97.07549424044154
 21
144.5551438925478
  0
ARC
  5
A8
100
AcDbEntity
  8
plate
  6
ByLayer
 62
    4
370
   -1
100
AcDbCircle
 10
196.8395454643016
 20
142.6240118346032
 40
1.999999999999994
100
AcDbArc
 50
105.0794442071744
 51
164.5824994933586
  0
ARC
  5
A9
100
AcDbEntity
  8
plate
  6
ByLayer
 62
    4
370
   -1
100
AcDbCircle
 10
187.1811549555053
 20
145.2154386191407
 40
8.000000000001062
100
AcDbArc
 50
284.6718105186203
 51
345.0803763637335
  0
ARC
  5
AA
100
AcDbEntity
  8
plate
  6
ByLayer
 62
    4
370
   -1
100
AcDbCircle
 10
208.0567930304674
 20
145.6445752208665
 40
1.999999999999475
100
AcDbArc
 50
55.3378622892965
 51
105.0794442071745
  0
LINE
  5
AB
100
AcDbEntity
  8
plate
  6
ByLayer
 62
    4
370
   -1
100
AcDbLine
 10
207.5364768047176
 20
147.5757072788106
 11
196.3192292385516
 21
144.5551438925478
  0
ARC
  5
AC
100
AcDbEntity
  8
plate
  6
ByLayer
 62
    4
370
   -1
100
AcDbCircle
 10
212.5740806123144
 20
152.2419512536655
 40
6.00000000000824
100
AcDbArc
 50
240.6350898488247
 51
285.0650723208034
  0
LINE
  5
AD
100
AcDbEntity
  8
plate
  6
ByLayer
 62
    4
370
   -1
100
AcDbLine
 10
209.1942652477134
 20
147.2896153282778
 11
209.6318600053941
 21
147.0128654922429
  0
LINE
  5
AE
100
AcDbEntity
  8
plate
  6
ByLayer
 62
    4
370
   -1
100
AcDbLine
 10
83.76268973928271
 20
146.986917846928
 11
84.20045823127975
 21
147.2896153282778
  0
LINE
  5
AF
100
AcDbEntity
  8
plate
  6
ByLayer
 62
    4
370
   -1
100
AcDbLine
 10
142.6869369929189
 20
127.3964888051135
 11
104.1873123725409
 21
137.4762987437562
  0
LINE
  5
B0
100
AcDbEntity
  8
plate
  6
ByLayer
 62
    4
370
   -1
100
AcDbLine
 10
150.4715893139929
 20
127.3910904925979
 11
189.2074111064522
 21
137.4762987437562
  0
LINE
  5
B1
100
AcDbEntity
  8
plate
  6
ByLayer
 62
    4
370
   -1
100
AcDbLine
 10
189.2074111064522
 20
137.4762987437562
 11
189.207411106311
 21
137.4762987437194
  0
ENDSEC
  0
SECTION
  2
OBJECTS
  0
DICTIONARY
  5
C
330
0
100
AcDbDictionary
281
    1
  3
ACAD_GROUP
350
D
  0
DICTIONARY
  5
D
330
C
100
AcDbDictionary
281
    1
  0
ENDSEC
  0
EOF
