<?xml version="1.0" encoding="UTF-8" standalone="no"?>
<!-- Created with Inkscape (http://www.inkscape.org/) -->

<svg
   xmlns:dc="http://purl.org/dc/elements/1.1/"
   xmlns:cc="http://creativecommons.org/ns#"
   xmlns:rdf="http://www.w3.org/1999/02/22-rdf-syntax-ns#"
   xmlns:svg="http://www.w3.org/2000/svg"
   xmlns="http://www.w3.org/2000/svg"
   xmlns:sodipodi="http://sodipodi.sourceforge.net/DTD/sodipodi-0.dtd"
   xmlns:inkscape="http://www.inkscape.org/namespaces/inkscape"
   width="420mm"
   height="297mm"
   viewBox="0 0 420 297"
   version="1.1"
   id="svg1294"
   inkscape:version="0.92.3 (2405546, 2018-03-11)"
   sodipodi:docname="back-plate.svg"
   inkscape:export-filename="C:\Users\filip\Dropbox\Prosjekter\zuboard\case\switch-plate.png"
   inkscape:export-xdpi="300"
   inkscape:export-ydpi="300">
  <defs
     id="defs1288">
    <inkscape:path-effect
       effect="mirror_symmetry"
       start_point="160.25,177.61234"
       end_point="160.25,198.77902"
       center_point="160.25,188.19568"
       id="path-effect2280"
       is_visible="true"
       mode="free"
       discard_orig_path="false"
       fuse_paths="true"
       oposite_fuse="false" />
    <inkscape:path-effect
       effect="mirror_symmetry"
       start_point="158.75,175.29167"
       end_point="158.75,204.39583"
       center_point="158.75,189.84375"
       id="path-effect2270"
       is_visible="true"
       mode="free"
       discard_orig_path="false"
       fuse_paths="true"
       oposite_fuse="false" />
    <inkscape:path-effect
       center_point="171.13123,186.99053"
       end_point="176.60957,207.43596"
       start_point="165.65289,166.5451"
       effect="mirror_symmetry"
       id="path-effect2147"
       is_visible="true"
       mode="free"
       discard_orig_path="false"
       fuse_paths="true"
       oposite_fuse="false" />
    <inkscape:path-effect
       effect="mirror_symmetry"
       start_point="185.64031,120.11501"
       end_point="194.54259,153.33885"
       center_point="190.09145,136.72693"
       id="path-effect6658"
       is_visible="true"
       mode="free"
       discard_orig_path="false"
       fuse_paths="false"
       oposite_fuse="false" />
    <inkscape:path-effect
       effect="mirror_symmetry"
       start_point="172.24379,75.44826"
       end_point="202.53517,188.3368"
       center_point="187.38948,131.89253"
       id="path-effect2210"
       is_visible="true"
       mode="free"
       discard_orig_path="false"
       fuse_paths="true"
       oposite_fuse="false" />
  </defs>
  <sodipodi:namedview
     id="base"
     pagecolor="#ffffff"
     bordercolor="#666666"
     borderopacity="1.0"
     inkscape:pageopacity="1"
     inkscape:pageshadow="2"
     inkscape:zoom="1"
     inkscape:cx="770.05848"
     inkscape:cy="633.38502"
     inkscape:document-units="mm"
     inkscape:current-layer="g2268"
     showgrid="false"
     inkscape:snap-global="true"
     inkscape:snap-bbox="true"
     inkscape:snap-bbox-midpoints="true"
     inkscape:snap-nodes="true"
     inkscape:object-paths="false"
     inkscape:snap-intersection-paths="false"
     inkscape:snap-smooth-nodes="true"
     inkscape:snap-midpoints="true"
     inkscape:snap-center="true"
     inkscape:snap-others="false"
     inkscape:window-width="2560"
     inkscape:window-height="1027"
     inkscape:window-x="-8"
     inkscape:window-y="-8"
     inkscape:window-maximized="1"
     inkscape:object-nodes="true"
     inkscape:snap-object-midpoints="true"
     showguides="true"
     inkscape:guide-bbox="true"
     inkscape:measure-start="671.603,555.118"
     inkscape:measure-end="660.1,540.128"
     inkscape:snap-bbox-edge-midpoints="false"
     inkscape:bbox-nodes="true">
    <inkscape:grid
       type="xygrid"
       id="grid2212"
       units="mm"
       spacingx="0.1"
       spacingy="0.1" />
  </sodipodi:namedview>
  <metadata
     id="metadata1291">
    <rdf:RDF>
      <cc:Work
         rdf:about="">
        <dc:format>image/svg+xml</dc:format>
        <dc:type
           rdf:resource="http://purl.org/dc/dcmitype/StillImage" />
        <dc:title></dc:title>
      </cc:Work>
    </rdf:RDF>
  </metadata>
  <g
     inkscape:label="Layer 1"
     inkscape:groupmode="layer"
     id="layer1">
    <g
       id="g2268"
       transform="translate(60.134423,31.215178)"
       inkscape:path-effect="#path-effect2280">
      <path
         sodipodi:nodetypes="cccccccccccccccccccccccccc"
         inkscape:connector-curvature="0"
         d="m 160.25393,95.336526 c -0.42946,-0.0018 -0.85693,-0.05887 -1.27186,-0.16988 L 113.2129,82.897953 c -0.51774,-0.138789 -0.83117,-0.659391 -0.71851,-1.177649 0.56721,-2.593415 -1.00008,-5.19901 -3.5909,-5.893495 L 93.544439,71.711366 v 0 c -1.993593,-0.531904 -4.093498,0.209015 -5.290719,1.832296 -0.24478,0.331892 -0.666432,0.516865 -1.08741,0.404065 L 74.158442,70.461873 c -2.667292,-0.714414 -5.408779,0.868384 -6.123723,3.535531 l -0.91244,3.405263 c -0.142995,0.533428 -0.691289,0.849989 -1.224745,0.707106 L 53.290263,74.731669 c -2.667292,-0.714411 -5.40878,0.868389 -6.123726,3.535538 L 33.710182,128.49474 c -0.714413,2.66729 0.868387,5.40877 3.535534,6.12372 l 45.805827,12.27156 c 0.533428,0.143 0.849989,0.69129 0.707107,1.22475 l -1.714674,6.39926 c -0.714418,2.66729 0.868386,5.40877 3.535535,6.12372 27.855209,7.33082 38.789479,14.63686 56.224119,37.5663 0.94622,1.2333 2.41218,1.95638 3.96664,1.95659 l 14.48366,-2e-5 14.48365,2e-5 c 1.55446,-2.1e-4 3.02042,-0.72329 3.96664,-1.95659 17.43464,-22.92944 28.36891,-30.23548 56.22412,-37.5663 2.66715,-0.71495 4.24996,-3.45643 3.53554,-6.12372 l -1.71468,-6.39926 c -0.14288,-0.53346 0.17368,-1.08175 0.70711,-1.22475 l 45.80583,-12.27156 c 2.66715,-0.71495 4.24995,-3.45643 3.53553,-6.12372 L 273.34132,78.267207 c -0.71495,-2.667149 -3.45644,-4.249949 -6.12373,-3.535538 l -12.60727,3.378104 c -0.53346,0.142883 -1.08175,-0.173678 -1.22474,-0.707106 l -0.91244,-3.405263 c -0.71495,-2.667147 -3.45644,-4.249945 -6.12373,-3.535531 l -13.00787,3.485854 c -0.42097,0.1128 -0.84263,-0.07217 -1.08741,-0.404065 -1.19722,-1.623281 -3.29712,-2.3642 -5.29071,-1.832296 v 0 l -15.35906,4.115443 c -2.59082,0.694485 -4.15811,3.30008 -3.5909,5.893495 0.11266,0.518258 -0.20077,1.03886 -0.71851,1.177649 l -45.76917,12.268693 c -0.41493,0.111015 -0.8424,0.168108 -1.27185,0.16988 z"
         style="fill:none;stroke:#0000ff;stroke-width:0.1;stroke-linecap:butt;stroke-linejoin:miter;stroke-miterlimit:4;stroke-dasharray:none;stroke-opacity:1"
         id="path2318-4-0-4-2"
         transform="translate(-0.00392742,8.7266005e-4)"
         inkscape:original-d="m 191.5137,75.206273 -31.23671,20.130295 c -0.43721,2.13e-4 -0.87256,-0.05692 -1.29492,-0.169922 L 113.2129,82.897953 c -0.51774,-0.138789 -0.83117,-0.659391 -0.71851,-1.177649 0.56721,-2.593415 -1.00008,-5.19901 -3.5909,-5.893495 L 93.544439,71.711366 v 0 c -1.993593,-0.531904 -4.093498,0.209015 -5.290719,1.832296 -0.24478,0.331892 -0.666432,0.516865 -1.08741,0.404065 L 74.158442,70.461873 c -2.667292,-0.714414 -5.408779,0.868384 -6.123723,3.535531 l -0.91244,3.405263 c -0.142995,0.533428 -0.691289,0.849989 -1.224745,0.707106 L 53.290263,74.731669 c -2.667292,-0.714411 -5.40878,0.868389 -6.123726,3.535538 L 33.710182,128.49474 c -0.714413,2.66729 0.868387,5.40877 3.535534,6.12372 l 45.805827,12.27156 c 0.533428,0.143 0.849989,0.69129 0.707107,1.22475 l -1.714674,6.39926 c -0.714418,2.66729 0.868386,5.40877 3.535535,6.12372 27.855209,7.33082 38.789479,14.63686 56.224119,37.5663 0.94622,1.2333 2.41218,1.95638 3.96664,1.95659 l 45.67754,-6e-5 0.0659,-124.954307" />
      <g
         id="g1165">
        <path
           id="path850"
           d="m 51.931743,77.725101 c 0,0.552285 -0.447715,1 -1,1 -0.552285,0 -1,-0.447715 -1,-1 0,-0.552285 0.447715,-1 1,-1 0.552285,0 1,0.447715 1,1 z m 216.636517,0 c 0,0.552285 0.44771,1 1,1 0.55228,0 1,-0.447715 1,-1 0,-0.552285 -0.44772,-1 -1,-1 -0.55229,0 -1,0.447715 -1,1 z"
           style="fill:none;fill-opacity:0.26976743;stroke:#0000ff;stroke-width:0.1;stroke-miterlimit:4;stroke-dasharray:none;stroke-opacity:1"
           inkscape:original-d="m 51.931743,77.725101 a 1,1 0 0 1 -1,1 1,1 0 0 1 -1,-1 1,1 0 0 1 1,-1 1,1 0 0 1 1,1 z"
           inkscape:connector-curvature="0" />
        <path
           id="path850-2"
           d="m 37.699932,130.85053 c 0,0.55228 -0.447715,1 -1,1 -0.552285,0 -1,-0.44772 -1,-1 0,-0.55228 0.447715,-1 1,-1 0.552285,0 1,0.44772 1,1 z m 245.100138,0 c 0,0.55228 0.44771,1 1,1 0.55228,0 1,-0.44772 1,-1 0,-0.55228 -0.44772,-1 -1,-1 -0.55229,0 -1,0.44772 -1,1 z"
           style="fill:none;fill-opacity:0.26976743;stroke:#0000ff;stroke-width:0.1;stroke-miterlimit:4;stroke-dasharray:none;stroke-opacity:1"
           inkscape:original-d="m 37.699932,130.85053 a 1,1 0 0 1 -1,1 1,1 0 0 1 -1,-1 1,1 0 0 1 1,-1 1,1 0 0 1 1,1 z"
           inkscape:connector-curvature="0" />
        <path
           id="path850-4"
           d="m 86.032578,156.86952 c 0,0.55228 -0.447715,1 -1,1 -0.552285,0 -1,-0.44772 -1,-1 0,-0.55228 0.447715,-1 1,-1 0.552285,0 1,0.44772 1,1 z m 148.434842,0 c 0,0.55228 0.44772,1 1,1 0.55229,0 1,-0.44772 1,-1 0,-0.55228 -0.44771,-1 -1,-1 -0.55228,0 -1,0.44772 -1,1 z"
           style="fill:none;fill-opacity:0.26976743;stroke:#0000ff;stroke-width:0.1;stroke-miterlimit:4;stroke-dasharray:none;stroke-opacity:1"
           inkscape:original-d="m 86.032578,156.86952 a 1,1 0 0 1 -1,1 1,1 0 0 1 -1,-1 1,1 0 0 1 1,-1 1,1 0 0 1 1,1 z"
           inkscape:connector-curvature="0" />
        <path
           id="path850-3"
           d="m 236.51009,67.932228 c 0,0.552285 -0.44772,1 -1,1 -0.55228,0 -1,-0.447715 -1,-1 0,-0.552285 0.44772,-1 1,-1 0.55228,0 1,0.447715 1,1 z M 258.67392,50.92532 c 0.53347,0.142942 1.08181,-0.17364 1.22475,-0.707106 0.14294,-0.533466 -0.17364,-1.081803 -0.70711,-1.224745 -0.53346,-0.142942 -1.0818,0.173641 -1.22474,0.707107 -0.14295,0.533466 0.17364,1.081803 0.7071,1.224744 z"
           style="fill:none;fill-opacity:0.26976743;stroke:#0000ff;stroke-width:0.1;stroke-miterlimit:4;stroke-dasharray:none;stroke-opacity:1"
           transform="rotate(37.5)"
           inkscape:original-d="m 236.51009,67.932228 a 1,1 0 0 1 -1,1 1,1 0 0 1 -1,-1 1,1 0 0 1 1,-1 1,1 0 0 1 1,1 z"
           inkscape:connector-curvature="0" />
        <path
           id="path986"
           d="m 101.57293,76.185002 c 0,0.552285 -0.44772,1 -1,1 -0.55229,2e-6 -1.000003,-0.447714 -1.000003,-1 0,-0.552286 0.447713,-1.000002 1.000003,-1 0.55228,0 1,0.447715 1,1 z m 117.35414,0 c 0,0.552285 0.44772,1 1,1 0.55229,2e-6 1,-0.447714 1,-1 0,-0.552286 -0.44771,-1.000002 -1,-1 -0.55228,0 -1,0.447715 -1,1 z"
           style="fill:none;fill-opacity:0.2465116;stroke:#0000ff;stroke-width:0.1;stroke-miterlimit:4;stroke-dasharray:none;stroke-opacity:1"
           inkscape:original-d="m 101.57293,76.185002 a 1,1 0 0 1 -1,1 1,1 0 0 1 -1.000003,-1 1,1 0 0 1 1.000003,-1 1,1 0 0 1 1,1 z"
           inkscape:connector-curvature="0" />
        <path
           id="path986-5-7-85"
           d="m 130.569,153.88046 c 0,0.55228 -0.44772,1 -1,1 -0.55228,0 -1,-0.44772 -1,-1 0,-0.55228 0.44772,-1 1,-1 0.55228,0 1,0.44772 1,1 z m 59.362,0 c 0,0.55228 0.44772,1 1,1 0.55228,0 1,-0.44772 1,-1 0,-0.55228 -0.44772,-1 -1,-1 -0.55228,0 -1,0.44772 -1,1 z"
           style="fill:none;fill-opacity:0.2465116;stroke:#0000ff;stroke-width:0.1;stroke-miterlimit:4;stroke-dasharray:none;stroke-opacity:1"
           inkscape:original-d="m 130.569,153.88046 a 1,1 0 0 1 -1,1 1,1 0 0 1 -1,-1 1,1 0 0 1 1,-1 1,1 0 0 1 1,1 z"
           inkscape:connector-curvature="0" />
        <path
           transform="rotate(15.000001)"
           style="fill:none;fill-opacity:0.2820513;stroke:#0000ff;stroke-width:0.1;stroke-miterlimit:4;stroke-dasharray:none;stroke-opacity:1"
           d="m 108.33973,87.489075 c 0,0.552285 -0.44772,1 -1,1 -0.55228,0 -1,-0.447715 -1,-1 0,-0.552285 0.44772,-1 1,-1 0.55228,0 1,0.447715 1,1 z M 259.49881,46.986119 c 0.27614,0.478293 0.88773,0.642168 1.36602,0.366025 0.4783,-0.276142 0.64217,-0.887733 0.36603,-1.366025 -0.27614,-0.478293 -0.88773,-0.642168 -1.36603,-0.366026 -0.47829,0.276143 -0.64216,0.887733 -0.36602,1.366026 z"
           id="path901"
           inkscape:original-d="m 108.33973,87.489075 a 1,1 0 0 1 -1,1 1,1 0 0 1 -1,-1 1,1 0 0 1 1,-1 1,1 0 0 1 1,1 z"
           inkscape:connector-curvature="0" />
      </g>
      <g
         id="g5096"
         transform="translate(21.604213,173.92103)" />
    </g>
  </g>
</svg>
